<svg width="27" height="24" viewBox="0 0 27 24" fill="none" xmlns="http://www.w3.org/2000/svg">
<path d="M12.6912 4.91998L13.7306 6.48023L14.7713 4.92088C16.6945 2.03913 19.3046 1.52859 21.3848 2.30519C23.5324 3.10696 25.3214 5.35512 25.3214 8.45957C25.3214 9.42518 24.779 10.716 23.7 12.2485C22.6487 13.7417 21.2118 15.2931 19.7029 16.7462C18.1995 18.1937 16.656 19.5139 15.4103 20.5476C14.9628 20.9189 14.558 21.2497 14.205 21.5382C14.0654 21.6524 13.9338 21.7599 13.8109 21.8607C13.7808 21.8853 13.751 21.9098 13.7214 21.9341C13.6849 21.9052 13.6479 21.8759 13.6108 21.8466C13.4314 21.7048 13.2377 21.5527 13.0288 21.3887C12.7039 21.1336 12.3423 20.8497 11.9405 20.5306C10.637 19.4955 9.01747 18.1744 7.43807 16.7255C5.85259 15.271 4.34134 13.7183 3.23547 12.2244C2.09753 10.6872 1.53571 9.40533 1.53571 8.45957C1.53571 5.37653 3.42943 3.1083 5.75476 2.29308C8.03074 1.49516 10.79 2.06584 12.6912 4.91998Z" stroke="#C7C5D0" stroke-width="2.5"/>
</svg>
