<svg width="37" height="37" viewBox="0 0 37 37" fill="none" xmlns="http://www.w3.org/2000/svg">
<path d="M20.0417 15.4167H4.62501C3.77709 15.4167 3.08334 16.1104 3.08334 16.9583C3.08334 17.8062 3.77709 18.5 4.62501 18.5H20.0417C20.8896 18.5 21.5833 17.8062 21.5833 16.9583C21.5833 16.1104 20.8896 15.4167 20.0417 15.4167ZM20.0417 9.25H4.62501C3.77709 9.25 3.08334 9.94375 3.08334 10.7917C3.08334 11.6396 3.77709 12.3333 4.62501 12.3333H20.0417C20.8896 12.3333 21.5833 11.6396 21.5833 10.7917C21.5833 9.94375 20.8896 9.25 20.0417 9.25ZM27.75 21.5833V16.9583C27.75 16.1104 27.0563 15.4167 26.2083 15.4167C25.3604 15.4167 24.6667 16.1104 24.6667 16.9583V21.5833H20.0417C19.1938 21.5833 18.5 22.2771 18.5 23.125C18.5 23.9729 19.1938 24.6667 20.0417 24.6667H24.6667V29.2917C24.6667 30.1396 25.3604 30.8333 26.2083 30.8333C27.0563 30.8333 27.75 30.1396 27.75 29.2917V24.6667H32.375C33.2229 24.6667 33.9167 23.9729 33.9167 23.125C33.9167 22.2771 33.2229 21.5833 32.375 21.5833H27.75ZM4.62501 24.6667H13.875C14.7229 24.6667 15.4167 23.9729 15.4167 23.125C15.4167 22.2771 14.7229 21.5833 13.875 21.5833H4.62501C3.77709 21.5833 3.08334 22.2771 3.08334 23.125C3.08334 23.9729 3.77709 24.6667 4.62501 24.6667Z" fill="#C7C5D0"/>
</svg>
