<svg width="31" height="22" viewBox="0 0 31 22" fill="none" xmlns="http://www.w3.org/2000/svg">
<path d="M17.0417 6.41667H1.62501C0.777094 6.41667 0.0833435 7.11042 0.0833435 7.95833C0.0833435 8.80625 0.777094 9.5 1.62501 9.5H17.0417C17.8896 9.5 18.5833 8.80625 18.5833 7.95833C18.5833 7.11042 17.8896 6.41667 17.0417 6.41667ZM17.0417 0.25H1.62501C0.777094 0.25 0.0833435 0.94375 0.0833435 1.79167C0.0833435 2.63958 0.777094 3.33333 1.62501 3.33333H17.0417C17.8896 3.33333 18.5833 2.63958 18.5833 1.79167C18.5833 0.94375 17.8896 0.25 17.0417 0.25ZM24.75 12.5833V7.95833C24.75 7.11042 24.0563 6.41667 23.2083 6.41667C22.3604 6.41667 21.6667 7.11042 21.6667 7.95833V12.5833H17.0417C16.1938 12.5833 15.5 13.2771 15.5 14.125C15.5 14.9729 16.1938 15.6667 17.0417 15.6667H21.6667V20.2917C21.6667 21.1396 22.3604 21.8333 23.2083 21.8333C24.0563 21.8333 24.75 21.1396 24.75 20.2917V15.6667H29.375C30.2229 15.6667 30.9167 14.9729 30.9167 14.125C30.9167 13.2771 30.2229 12.5833 29.375 12.5833H24.75ZM1.62501 15.6667H10.875C11.7229 15.6667 12.4167 14.9729 12.4167 14.125C12.4167 13.2771 11.7229 12.5833 10.875 12.5833H1.62501C0.777094 12.5833 0.0833435 13.2771 0.0833435 14.125C0.0833435 14.9729 0.777094 15.6667 1.62501 15.6667Z" fill="url(#paint0_linear_4_323)"/>
<defs>
<linearGradient id="paint0_linear_4_323" x1="22.5422" y1="18.769" x2="14.3446" y2="0.344033" gradientUnits="userSpaceOnUse">
<stop stop-color="#5F30C1"/>
<stop offset="1" stop-color="#968EF1"/>
</linearGradient>
</defs>
</svg>
