<svg width="19" height="20" viewBox="0 0 19 20" fill="none" xmlns="http://www.w3.org/2000/svg">
<path d="M15.4 12.4C17.392 12.4 19 14.008 19 16C19 17.992 17.392 19.6 15.4 19.6C13.408 19.6 11.8 17.992 11.8 16C11.8 15.712 11.836 15.448 11.908 15.172L6.65199 12.412C5.99199 13.144 5.05599 13.6 3.99999 13.6C2.00799 13.6 0.399994 11.992 0.399994 9.99999C0.399994 8.00799 2.00799 6.39999 3.99999 6.39999C5.05599 6.39999 5.99199 6.86799 6.65199 7.58799L11.908 4.82799C11.836 4.55199 11.8 4.28799 11.8 3.99999C11.8 2.00799 13.408 0.399994 15.4 0.399994C17.392 0.399994 19 2.00799 19 3.99999C19 5.99199 17.392 7.59999 15.4 7.59999C14.344 7.59999 13.408 7.13199 12.748 6.41199L7.49199 9.17199C7.63734 9.71443 7.63734 10.2856 7.49199 10.828L12.748 13.588C13.408 12.856 14.344 12.4 15.4 12.4V12.4Z" fill="url(#paint0_linear_4_321)"/>
<defs>
<linearGradient id="paint0_linear_4_321" x1="13.9481" y1="16.8741" x2="4.94239" y2="3.1478" gradientUnits="userSpaceOnUse">
<stop stop-color="#5F30C1"/>
<stop offset="1" stop-color="#968EF1"/>
</linearGradient>
</defs>
</svg>
