<svg width="24" height="24" viewBox="0 0 24 24" fill="none" xmlns="http://www.w3.org/2000/svg">
<path d="M17.4 14.4C19.392 14.4 21 16.008 21 18C21 19.992 19.392 21.6 17.4 21.6C15.408 21.6 13.8 19.992 13.8 18C13.8 17.712 13.836 17.448 13.908 17.172L8.65199 14.412C7.99199 15.144 7.05599 15.6 5.99999 15.6C4.00799 15.6 2.39999 13.992 2.39999 12C2.39999 10.008 4.00799 8.39999 5.99999 8.39999C7.05599 8.39999 7.99199 8.86799 8.65199 9.58799L13.908 6.82799C13.836 6.55199 13.8 6.28799 13.8 5.99999C13.8 4.00799 15.408 2.39999 17.4 2.39999C19.392 2.39999 21 4.00799 21 5.99999C21 7.99199 19.392 9.59999 17.4 9.59999C16.344 9.59999 15.408 9.13199 14.748 8.41199L9.49199 11.172C9.63734 11.7144 9.63734 12.2856 9.49199 12.828L14.748 15.588C15.408 14.856 16.344 14.4 17.4 14.4Z" fill="#C7C5D0"/>
</svg>
